<?xml version="1.0" standalone="no"?>
<!DOCTYPE svg PUBLIC "-//W3C//DTD SVG 20010904//EN"
 "http://www.w3.org/TR/2001/REC-SVG-20010904/DTD/svg10.dtd">
<svg version="1.0" xmlns="http://www.w3.org/2000/svg"
 width="180.000000pt" height="180.000000pt" viewBox="0 0 180.000000 180.000000"
 preserveAspectRatio="xMidYMid meet">
<metadata>
Created by potrace 1.14, written by Peter Selinger 2001-2017
</metadata>
<g transform="translate(0.000000,180.000000) scale(0.100000,-0.100000)"
fill="#000000" stroke="none">
<path d="M672 1625 c-31 -23 -41 -54 -30 -88 11 -30 30 -43 68 -48 81 -9 127
80 67 129 -26 22 -80 25 -105 7z"/>
<path d="M1018 1622 c-57 -41 -36 -111 43 -135 25 -8 78 20 89 48 27 71 -66
133 -132 87z"/>
<path d="M0 1473 l0 -48 175 -124 c103 -73 172 -128 168 -135 -4 -6 -17 -24
-29 -41 -20 -27 -49 -88 -68 -140 -23 -63 -26 -228 -6 -303 16 -57 53 -135 86
-179 13 -17 24 -34 24 -36 0 -3 -79 -60 -175 -127 l-175 -122 0 -44 c0 -24 3
-44 6 -44 3 0 95 63 206 139 l200 140 46 -33 c129 -92 250 -128 437 -129 231
-1 390 58 531 198 96 95 138 174 159 298 l6 37 104 0 105 0 0 40 0 40 -105 0
c-102 0 -110 2 -107 31 3 17 -40 154 -53 173 -8 11 -15 23 -15 26 0 3 63 42
140 85 l139 80 1 47 0 47 -162 -93 -162 -94 -65 59 c-35 33 -89 73 -120 90
-251 137 -607 122 -826 -35 -27 -20 -54 -36 -58 -36 -5 0 -93 60 -196 133
-103 73 -192 137 -199 141 -9 5 -12 -6 -12 -41z m1048 -237 c78 -21 159 -65
215 -116 28 -26 50 -50 47 -53 -3 -2 -63 -37 -133 -77 l-128 -73 -24 23 c-49
46 -119 55 -191 25 -30 -12 -34 -11 -100 36 -38 28 -93 66 -121 86 -29 20 -53
39 -53 43 0 23 140 90 225 109 60 12 209 11 263 -3z m-416 -261 c119 -85 125
-91 116 -114 -5 -14 -8 -47 -6 -74 l3 -50 -120 -83 c-65 -46 -122 -84 -126
-84 -15 0 -70 127 -78 180 -10 65 -6 140 11 195 15 47 59 127 68 123 4 -2 63
-43 132 -93z m744 -10 c7 -19 17 -50 20 -70 l5 -35 -143 0 -143 0 47 30 c27
17 50 30 52 30 2 0 33 18 67 39 35 22 68 40 72 40 4 1 15 -15 23 -34z m19
-213 c-35 -200 -225 -346 -461 -356 -128 -5 -249 26 -339 87 l-36 25 33 24
c18 14 72 53 121 87 l88 61 32 -16 c43 -23 74 -26 123 -13 49 13 91 49 110 95
l14 34 160 0 160 0 -5 -28z"/>
</g>
</svg>
